<svg width="900" height="1200" viewBox="0 0 900 1200" fill="none" xmlns="http://www.w3.org/2000/svg">
  <rect width="900" height="1200" fill="#214437"/>
  <rect x="60" y="80" width="780" height="1040" rx="28" fill="#1B392E"/>
  <rect x="120" y="170" width="660" height="320" rx="20" fill="#2A5B49"/>
  <path d="M220 400C260 310 300 250 350 200C410 250 450 330 510 400" stroke="#E6BE56" stroke-width="14" stroke-linecap="round"/>
  <path d="M390 400C430 310 470 250 520 200C580 250 620 330 680 400" stroke="#F3F7FB" stroke-width="14" stroke-linecap="round"/>
  <rect x="120" y="540" width="660" height="42" rx="10" fill="#F3F7FB"/>
  <rect x="120" y="606" width="660" height="28" rx="10" fill="#DBE9DE"/>
  <rect x="120" y="650" width="660" height="28" rx="10" fill="#DBE9DE"/>
  <rect x="120" y="694" width="500" height="28" rx="10" fill="#DBE9DE"/>
  <rect x="120" y="790" width="300" height="70" rx="14" fill="#E6BE56"/>
  <text x="450" y="102" fill="#E6BE56" font-size="28" font-family="Arial, sans-serif" text-anchor="middle">POST DEMONSTRATIVO</text>
  <text x="450" y="568" fill="#0F2B21" font-size="26" font-family="Arial, sans-serif" text-anchor="middle">Genética e Saúde no Cotidiano</text>
  <text x="270" y="835" fill="#0F2B21" font-size="24" font-family="Arial, sans-serif" text-anchor="middle">Ver exemplo</text>
</svg>
