<svg width="900" height="1200" viewBox="0 0 900 1200" fill="none" xmlns="http://www.w3.org/2000/svg">
  <rect width="900" height="1200" fill="#123A49"/>
  <rect x="60" y="80" width="780" height="1040" rx="28" fill="#0F2F3B"/>
  <rect x="120" y="170" width="660" height="320" rx="20" fill="#1E596D"/>
  <circle cx="235" cy="330" r="88" fill="#E4B74A"/>
  <rect x="360" y="250" width="360" height="36" rx="8" fill="#F3F7FB"/>
  <rect x="360" y="304" width="300" height="26" rx="8" fill="#DDE8F0"/>
  <rect x="360" y="344" width="250" height="26" rx="8" fill="#DDE8F0"/>
  <rect x="120" y="540" width="660" height="42" rx="10" fill="#F3F7FB"/>
  <rect x="120" y="606" width="660" height="28" rx="10" fill="#DDE8F0"/>
  <rect x="120" y="650" width="660" height="28" rx="10" fill="#DDE8F0"/>
  <rect x="120" y="694" width="500" height="28" rx="10" fill="#DDE8F0"/>
  <rect x="120" y="790" width="300" height="70" rx="14" fill="#E4B74A"/>
  <text x="450" y="102" fill="#E4B74A" font-size="28" font-family="Arial, sans-serif" text-anchor="middle">POST DEMONSTRATIVO</text>
  <text x="450" y="568" fill="#13384C" font-size="26" font-family="Arial, sans-serif" text-anchor="middle">Biodiversidade em Espaços Urbanos</text>
  <text x="270" y="835" fill="#13384C" font-size="24" font-family="Arial, sans-serif" text-anchor="middle">Ver exemplo</text>
</svg>
